<svg width="25" height="25" viewBox="0 0 25 25" fill="none" xmlns="http://www.w3.org/2000/svg">
<g clip-path="url(#clip0_1051_185)">
<path d="M1.98438 22.3193C1.98438 23.5615 2.99219 24.5693 4.23438 24.5693H20.7344C21.9766 24.5693 22.9844 23.5615 22.9844 22.3193V9.56934H1.98438V22.3193ZM16.9844 13.1318C16.9844 12.8225 17.2375 12.5693 17.5469 12.5693H19.4219C19.7312 12.5693 19.9844 12.8225 19.9844 13.1318V15.0068C19.9844 15.3162 19.7312 15.5693 19.4219 15.5693H17.5469C17.2375 15.5693 16.9844 15.3162 16.9844 15.0068V13.1318ZM16.9844 19.1318C16.9844 18.8225 17.2375 18.5693 17.5469 18.5693H19.4219C19.7312 18.5693 19.9844 18.8225 19.9844 19.1318V21.0068C19.9844 21.3162 19.7312 21.5693 19.4219 21.5693H17.5469C17.2375 21.5693 16.9844 21.3162 16.9844 21.0068V19.1318ZM10.9844 13.1318C10.9844 12.8225 11.2375 12.5693 11.5469 12.5693H13.4219C13.7312 12.5693 13.9844 12.8225 13.9844 13.1318V15.0068C13.9844 15.3162 13.7312 15.5693 13.4219 15.5693H11.5469C11.2375 15.5693 10.9844 15.3162 10.9844 15.0068V13.1318ZM10.9844 19.1318C10.9844 18.8225 11.2375 18.5693 11.5469 18.5693H13.4219C13.7312 18.5693 13.9844 18.8225 13.9844 19.1318V21.0068C13.9844 21.3162 13.7312 21.5693 13.4219 21.5693H11.5469C11.2375 21.5693 10.9844 21.3162 10.9844 21.0068V19.1318ZM4.98438 13.1318C4.98438 12.8225 5.2375 12.5693 5.54688 12.5693H7.42188C7.73125 12.5693 7.98438 12.8225 7.98438 13.1318V15.0068C7.98438 15.3162 7.73125 15.5693 7.42188 15.5693H5.54688C5.2375 15.5693 4.98438 15.3162 4.98438 15.0068V13.1318ZM4.98438 19.1318C4.98438 18.8225 5.2375 18.5693 5.54688 18.5693H7.42188C7.73125 18.5693 7.98438 18.8225 7.98438 19.1318V21.0068C7.98438 21.3162 7.73125 21.5693 7.42188 21.5693H5.54688C5.2375 21.5693 4.98438 21.3162 4.98438 21.0068V19.1318ZM20.7344 3.56934H18.4844V1.31934C18.4844 0.906836 18.1469 0.569336 17.7344 0.569336H16.2344C15.8219 0.569336 15.4844 0.906836 15.4844 1.31934V3.56934H9.48438V1.31934C9.48438 0.906836 9.14688 0.569336 8.73438 0.569336H7.23438C6.82187 0.569336 6.48438 0.906836 6.48438 1.31934V3.56934H4.23438C2.99219 3.56934 1.98438 4.57715 1.98438 5.81934V8.06934H22.9844V5.81934C22.9844 4.57715 21.9766 3.56934 20.7344 3.56934Z" fill="#5A2FBA"/>
</g>
<defs>
<clipPath id="clip0_1051_185">
<rect width="24" height="24" fill="white" transform="translate(0.484375 0.569336)"/>
</clipPath>
</defs>
</svg>
