<svg width="24" height="26" viewBox="0 0 24 26" fill="none" xmlns="http://www.w3.org/2000/svg">
<path d="M17.1425 10.546V16.3514C17.1425 20.575 13.7187 23.9987 9.49527 23.9987C5.27178 23.9987 1.84808 20.575 1.84808 16.3514V10.546H1.85153C1.84996 10.5227 1.84808 10.4994 1.84808 10.4757C1.84808 9.86968 2.33953 9.37824 2.94566 9.37824H16.0446C16.6509 9.37824 17.1425 9.86968 17.1425 10.4757C17.1425 10.4994 17.1401 10.5227 17.1388 10.546H17.1425ZM18.9903 8.97458C18.9903 8.22181 18.3801 7.61155 17.6273 7.61155H1.363C0.610292 7.61155 0 8.22181 0 8.97458C0 9.00384 0.00261593 9.03266 0.00443359 9.06148H0V16.2701C0 21.5142 4.25107 25.7651 9.49527 25.7651C14.7392 25.7651 18.9903 21.5142 18.9903 16.2701V9.06148H18.9859C18.9877 9.03266 18.9903 9.00384 18.9903 8.97458Z" fill="#001F44"/>
<path d="M22.9918 9.87233C21.9085 8.78949 20.2842 8.58046 18.9903 9.24257V11.3185C19.7054 10.6111 20.8581 10.6134 21.5703 11.3253C22.2847 12.0398 22.2847 13.1982 21.5703 13.9129L18.9845 16.4986C18.9628 17.417 18.8127 18.3034 18.5479 19.1395C18.6644 19.0495 18.7782 18.9542 18.8852 18.8474L22.9918 14.7408C24.336 13.3964 24.336 11.2167 22.9918 9.87233Z" fill="#001F44"/>
<path d="M2.85168 16.1643C2.85168 19.8335 5.82607 22.8076 9.49524 22.8076C13.1643 22.8076 16.1386 19.8335 16.1386 16.1643H2.85168Z" fill="#001F44"/>
<path d="M4.63293 5.53771C4.63293 5.86822 4.90075 6.13599 5.2311 6.13599C5.56152 6.13599 5.82933 5.86822 5.82933 5.53771V2.94488C5.82933 2.6146 5.56152 2.34683 5.2311 2.34683C4.90075 2.34683 4.63293 2.6146 4.63293 2.94488V5.53771Z" fill="#F6642D"/>
<path d="M13.161 5.53771C13.161 5.86822 13.4288 6.13599 13.7591 6.13599C14.0896 6.13599 14.3573 5.86822 14.3573 5.53771V2.94488C14.3573 2.6146 14.0896 2.34683 13.7591 2.34683C13.4288 2.34683 13.161 2.6146 13.161 2.94488V5.53771Z" fill="#5A2FBA"/>
<path d="M8.89697 5.53771C8.89697 5.86822 9.16474 6.13599 9.49503 6.13599C9.82553 6.13599 10.0933 5.86822 10.0933 5.53771V0.598325C10.0933 0.268043 9.82553 4.32025e-05 9.49503 4.32025e-05C9.16474 4.32025e-05 8.89697 0.268043 8.89697 0.598325V5.53771Z" fill="#D42E58"/>
<path d="M4.67712 5.5758C4.67712 5.90631 4.9449 6.17407 5.2754 6.17407C5.60568 6.17407 5.87346 5.90631 5.87346 5.5758V2.98297C5.87346 2.65268 5.60568 2.38491 5.2754 2.38491C4.9449 2.38491 4.67712 2.65268 4.67712 2.98297V5.5758Z" fill="#F6642D"/>
</svg>
