<svg width="25" height="25" viewBox="0 0 25 25" fill="none" xmlns="http://www.w3.org/2000/svg">
<g clip-path="url(#clip0_1051_85)">
<path d="M19.0625 10.0001H13.125V12.1876C13.125 13.7384 11.8633 15.0001 10.3125 15.0001C8.76175 15.0001 7.50004 13.7384 7.50004 12.1876V7.43763L4.96488 8.96107C4.21097 9.41029 3.75004 10.2267 3.75004 11.1017V12.9494L0.625036 14.754C0.0273802 15.0978 -0.179651 15.8634 0.168005 16.4611L3.29301 21.8751C3.63676 22.4728 4.40238 22.6759 5.00004 22.3322L9.0391 20.0001H14.375C15.7539 20.0001 16.875 18.879 16.875 17.5001H17.5C18.1914 17.5001 18.75 16.9415 18.75 16.2501V13.7501H19.0625C19.5821 13.7501 20 13.3322 20 12.8126V10.9376C20 10.4181 19.5821 10.0001 19.0625 10.0001ZM24.8321 8.53919L21.7071 3.12513C21.3633 2.52748 20.5977 2.32435 20 2.6681L15.961 5.00013H11.9688C11.5 5.00013 11.043 5.13294 10.6446 5.37904L9.33597 6.19544C8.96879 6.42201 8.75004 6.82435 8.75004 7.25404V12.1876C8.75004 13.0509 9.44925 13.7501 10.3125 13.7501C11.1758 13.7501 11.875 13.0509 11.875 12.1876V8.75013H19.0625C20.2696 8.75013 21.25 9.7306 21.25 10.9376V12.0509L24.375 10.2462C24.9727 9.89857 25.1758 9.13685 24.8321 8.53919Z" fill="url(#paint0_linear_1051_85)"/>
</g>
<defs>
<linearGradient id="paint0_linear_1051_85" x1="12.4992" y1="2.50098" x2="12.4992" y2="22.4993" gradientUnits="userSpaceOnUse">
<stop stop-color="#F6642D"/>
<stop offset="0.49" stop-color="#D42E58"/>
<stop offset="1" stop-color="#5A2FBA"/>
</linearGradient>
<clipPath id="clip0_1051_85">
<rect width="25" height="25" fill="white"/>
</clipPath>
</defs>
</svg>
