<svg width="25" height="25" viewBox="0 0 25 25" fill="none" xmlns="http://www.w3.org/2000/svg">
<g clip-path="url(#clip0_1145_76)">
<path d="M12.5 0.390625C5.81201 0.390625 0.390625 5.81201 0.390625 12.5C0.390625 19.188 5.81201 24.6094 12.5 24.6094C19.188 24.6094 24.6094 19.188 24.6094 12.5C24.6094 5.81201 19.188 0.390625 12.5 0.390625ZM16.5181 17.8516C16.3276 18.041 16.1279 18.2397 15.9658 18.4023C15.8198 18.5488 15.7168 18.7295 15.6646 18.9253C15.5908 19.2017 15.5313 19.481 15.4316 19.749L14.5825 22.0366C13.9106 22.1831 13.2153 22.2656 12.5 22.2656V20.9287C12.5825 20.3125 12.127 19.1582 11.395 18.4263C11.1021 18.1333 10.9375 17.7358 10.9375 17.3213V15.7583C10.9375 15.1899 10.6313 14.6675 10.1338 14.3926C9.43213 14.0044 8.43408 13.4619 7.75049 13.1177C7.18994 12.8354 6.67139 12.4761 6.20508 12.0557L6.16602 12.0205C5.83255 11.7195 5.53648 11.3795 5.28418 11.0078C4.82617 10.3354 4.08008 9.22949 3.59521 8.51074C4.59473 6.28906 6.396 4.50488 8.63428 3.53564L9.80664 4.12207C10.3262 4.38184 10.9375 4.00439 10.9375 3.42334V2.87158C11.3276 2.80859 11.7246 2.76855 12.1284 2.75342L13.5103 4.13525C13.8154 4.44043 13.8154 4.93506 13.5103 5.24023L13.2812 5.46875L12.7764 5.97363C12.624 6.12598 12.624 6.37353 12.7764 6.52588L13.0054 6.75488C13.1577 6.90723 13.1577 7.15478 13.0054 7.30713L12.6147 7.69775C12.5414 7.77095 12.442 7.81205 12.3384 7.81201H11.8994C11.7979 7.81201 11.7002 7.85156 11.627 7.92285L11.1426 8.39404C11.0832 8.45186 11.0437 8.52705 11.0299 8.60876C11.016 8.69046 11.0285 8.77446 11.0654 8.84863L11.8267 10.3716C11.9565 10.6313 11.7676 10.937 11.4775 10.937H11.2021C11.1079 10.937 11.0171 10.9028 10.9463 10.8413L10.4932 10.4478C10.3906 10.3588 10.2667 10.2981 10.1336 10.2715C10.0004 10.245 9.8627 10.2536 9.73389 10.2964L8.21191 10.8037C8.09572 10.8425 7.99466 10.9168 7.92306 11.0162C7.85146 11.1155 7.81295 11.2349 7.81299 11.3574C7.81299 11.5786 7.93799 11.7803 8.13574 11.8794L8.67676 12.1499C9.13623 12.3799 9.64307 12.4995 10.1567 12.4995C10.6704 12.4995 11.2598 13.832 11.7192 14.062H14.9785C15.3931 14.062 15.79 14.2266 16.0835 14.5195L16.752 15.188C17.0312 15.4674 17.1881 15.8462 17.188 16.2412C17.1879 16.5405 17.1287 16.8369 17.0137 17.1132C16.8987 17.3896 16.7303 17.6405 16.5181 17.8516ZM20.752 13.3911C20.4692 13.3203 20.2227 13.147 20.061 12.9043L19.1831 11.5874C19.0546 11.395 18.9861 11.1688 18.9861 10.9375C18.9861 10.7062 19.0546 10.48 19.1831 10.2876L20.1396 8.85303C20.2529 8.68359 20.4082 8.5459 20.5908 8.45508L21.2246 8.13818C21.8848 9.45264 22.2656 10.9312 22.2656 12.5C22.2656 12.9233 22.2295 13.3379 22.1768 13.7471L20.752 13.3911Z" fill="black"/>
</g>
<defs>
<clipPath id="clip0_1145_76">
<rect width="25" height="25" fill="white"/>
</clipPath>
</defs>
</svg>
