<svg width="25" height="25" viewBox="0 0 25 25" fill="none" xmlns="http://www.w3.org/2000/svg">
<g clip-path="url(#clip0_1051_172)">
<path d="M12.7002 2.3894C6.07207 2.3894 0.700195 6.75347 0.700195 12.1394C0.700195 14.4644 1.70332 16.5925 3.37207 18.266C2.78613 20.6285 0.826758 22.7332 0.80332 22.7566C0.700195 22.8644 0.67207 23.0238 0.733008 23.1644C0.793945 23.305 0.925195 23.3894 1.0752 23.3894C4.18301 23.3894 6.5127 21.8988 7.66582 20.98C9.19863 21.5566 10.9002 21.8894 12.7002 21.8894C19.3283 21.8894 24.7002 17.5253 24.7002 12.1394C24.7002 6.75347 19.3283 2.3894 12.7002 2.3894ZM6.7002 13.6394C5.87051 13.6394 5.2002 12.9691 5.2002 12.1394C5.2002 11.3097 5.87051 10.6394 6.7002 10.6394C7.52988 10.6394 8.2002 11.3097 8.2002 12.1394C8.2002 12.9691 7.52988 13.6394 6.7002 13.6394ZM12.7002 13.6394C11.8705 13.6394 11.2002 12.9691 11.2002 12.1394C11.2002 11.3097 11.8705 10.6394 12.7002 10.6394C13.5299 10.6394 14.2002 11.3097 14.2002 12.1394C14.2002 12.9691 13.5299 13.6394 12.7002 13.6394ZM18.7002 13.6394C17.8705 13.6394 17.2002 12.9691 17.2002 12.1394C17.2002 11.3097 17.8705 10.6394 18.7002 10.6394C19.5299 10.6394 20.2002 11.3097 20.2002 12.1394C20.2002 12.9691 19.5299 13.6394 18.7002 13.6394Z" fill="url(#paint0_linear_1051_172)"/>
</g>
<defs>
<linearGradient id="paint0_linear_1051_172" x1="12.7002" y1="2.3894" x2="12.7002" y2="23.3894" gradientUnits="userSpaceOnUse">
<stop stop-color="#F6642D"/>
<stop offset="0.545" stop-color="#D42E58"/>
<stop offset="1" stop-color="#5A2FBA"/>
</linearGradient>
<clipPath id="clip0_1051_172">
<rect width="24" height="24" fill="white" transform="translate(0.700195 0.889404)"/>
</clipPath>
</defs>
</svg>
