<svg width="26" height="25" viewBox="0 0 26 25" fill="none" xmlns="http://www.w3.org/2000/svg">
<g clip-path="url(#clip0_1145_72)">
<path d="M9.41016 13.75H7.53516C7.18984 13.75 6.91016 14.0297 6.91016 14.375V21.875C6.91016 22.2203 7.18984 22.5 7.53516 22.5H9.41016C9.75547 22.5 10.0352 22.2203 10.0352 21.875V14.375C10.0352 14.0297 9.75547 13.75 9.41016 13.75ZM4.41016 17.5H2.53516C2.18984 17.5 1.91016 17.7797 1.91016 18.125V21.875C1.91016 22.2203 2.18984 22.5 2.53516 22.5H4.41016C4.75547 22.5 5.03516 22.2203 5.03516 21.875V18.125C5.03516 17.7797 4.75547 17.5 4.41016 17.5ZM14.4102 10H12.5352C12.1898 10 11.9102 10.2797 11.9102 10.625V21.875C11.9102 22.2203 12.1898 22.5 12.5352 22.5H14.4102C14.7555 22.5 15.0352 22.2203 15.0352 21.875V10.625C15.0352 10.2797 14.7555 10 14.4102 10ZM19.4102 6.25H17.5352C17.1898 6.25 16.9102 6.52969 16.9102 6.875V21.875C16.9102 22.2203 17.1898 22.5 17.5352 22.5H19.4102C19.7555 22.5 20.0352 22.2203 20.0352 21.875V6.875C20.0352 6.52969 19.7555 6.25 19.4102 6.25ZM24.4102 2.5H22.5352C22.1898 2.5 21.9102 2.77969 21.9102 3.125V21.875C21.9102 22.2203 22.1898 22.5 22.5352 22.5H24.4102C24.7555 22.5 25.0352 22.2203 25.0352 21.875V3.125C25.0352 2.77969 24.7555 2.5 24.4102 2.5Z" fill="black"/>
</g>
<defs>
<clipPath id="clip0_1145_72">
<rect width="25" height="25" fill="white" transform="translate(0.972656)"/>
</clipPath>
</defs>
</svg>
