<svg width="24" height="24" viewBox="0 0 24 24" fill="none" xmlns="http://www.w3.org/2000/svg">
<g clip-path="url(#clip0_1051_182)">
<path d="M23 4.00004H18.6667V2.33337C18.6667 1.77921 18.2208 1.33337 17.6667 1.33337H6.33333C5.77917 1.33337 5.33333 1.77921 5.33333 2.33337V4.00004H1C0.445833 4.00004 0 4.44587 0 5.00004V7.33337C0 8.82087 0.9375 10.35 2.57917 11.5292C3.89167 12.475 5.4875 13.075 7.1625 13.2667C8.47083 15.4375 10 16.3334 10 16.3334V19.3334H8C6.52917 19.3334 5.33333 20.1959 5.33333 21.6667V22.1667C5.33333 22.4417 5.55833 22.6667 5.83333 22.6667H18.1667C18.4417 22.6667 18.6667 22.4417 18.6667 22.1667V21.6667C18.6667 20.1959 17.4708 19.3334 16 19.3334H14V16.3334C14 16.3334 15.5292 15.4375 16.8375 13.2667C18.5167 13.075 20.1125 12.475 21.4208 11.5292C23.0583 10.35 24 8.82087 24 7.33337V5.00004C24 4.44587 23.5542 4.00004 23 4.00004ZM4.1375 9.36671C3.12083 8.63337 2.66667 7.81671 2.66667 7.33337V6.66671H5.34167C5.38333 8.02504 5.58333 9.21671 5.875 10.2584C5.24583 10.0417 4.65833 9.74171 4.1375 9.36671ZM21.3333 7.33337C21.3333 8.00421 20.5958 8.83754 19.8625 9.36671C19.3417 9.74171 18.75 10.0417 18.1208 10.2584C18.4125 9.21671 18.6125 8.02504 18.6542 6.66671H21.3333V7.33337Z" fill="#5A2FBA"/>
</g>
<defs>
<clipPath id="clip0_1051_182">
<rect width="24" height="24" fill="white"/>
</clipPath>
</defs>
</svg>
