<svg width="26" height="26" viewBox="0 0 26 26" fill="none" xmlns="http://www.w3.org/2000/svg">
<g clip-path="url(#clip0_1051_79)">
<path d="M24.9648 9.24824C18.0441 2.84707 7.28046 2.84941 0.362491 9.24824C0.102335 9.48887 0.0972568 9.89629 0.348819 10.1459L1.68632 11.4729C1.92616 11.7111 2.3121 11.7162 2.56132 11.4877C8.26132 6.26582 17.0652 6.26465 22.7664 11.4877C23.0156 11.7162 23.4016 11.7107 23.6414 11.4729L24.9789 10.1459C25.2301 9.89629 25.225 9.48887 24.9648 9.24824ZM12.6637 16.9482C11.2828 16.9482 10.1637 18.0674 10.1637 19.4482C10.1637 20.8291 11.2828 21.9482 12.6637 21.9482C14.0445 21.9482 15.1637 20.8291 15.1637 19.4482C15.1637 18.0674 14.0445 16.9482 12.6637 16.9482ZM20.5805 13.683C16.0781 9.70137 9.24413 9.70566 4.74687 13.683C4.47733 13.9213 4.46874 14.335 4.7246 14.5873L6.06991 15.915C6.30429 16.1463 6.68163 16.1619 6.93124 15.9463C10.2105 13.1115 15.1242 13.1178 18.3957 15.9463C18.6453 16.1619 19.0226 16.1467 19.257 15.915L20.6023 14.5873C20.8586 14.335 20.8496 13.9209 20.5805 13.683Z" fill="white"/>
</g>
<defs>
<clipPath id="clip0_1051_79">
<rect width="25" height="25" fill="white" transform="translate(0.163696 0.698242)"/>
</clipPath>
</defs>
</svg>
