<svg width="26" height="26" viewBox="0 0 26 26" fill="none" xmlns="http://www.w3.org/2000/svg">
<g clip-path="url(#clip0_1051_79)">
<path d="M25.6693 9.24824C18.7486 2.84707 7.98493 2.84941 1.06696 9.24824C0.806803 9.48887 0.801725 9.89629 1.05329 10.1459L2.39079 11.4729C2.63063 11.7111 3.01657 11.7162 3.26579 11.4877C8.96579 6.26582 17.7697 6.26465 23.4709 11.4877C23.7201 11.7162 24.106 11.7107 24.3459 11.4729L25.6834 10.1459C25.9345 9.89629 25.9295 9.48887 25.6693 9.24824ZM13.3681 16.9482C11.9873 16.9482 10.8681 18.0674 10.8681 19.4482C10.8681 20.8291 11.9873 21.9482 13.3681 21.9482C14.749 21.9482 15.8681 20.8291 15.8681 19.4482C15.8681 18.0674 14.749 16.9482 13.3681 16.9482ZM21.2849 13.683C16.7826 9.70137 9.9486 9.70566 5.45133 13.683C5.1818 13.9213 5.17321 14.335 5.42907 14.5873L6.77438 15.915C7.00876 16.1463 7.3861 16.1619 7.63571 15.9463C10.915 13.1115 15.8287 13.1178 19.1002 15.9463C19.3498 16.1619 19.7271 16.1467 19.9615 15.915L21.3068 14.5873C21.5631 14.335 21.5541 13.9209 21.2849 13.683Z" fill="black"/>
</g>
<defs>
<clipPath id="clip0_1051_79">
<rect width="25" height="25" fill="white" transform="translate(0.868164 0.698242)"/>
</clipPath>
</defs>
</svg>
