<svg width="25" height="24" viewBox="0 0 25 24" fill="none" xmlns="http://www.w3.org/2000/svg">
<mask id="mask0_1051_78" style="mask-type:luminance" maskUnits="userSpaceOnUse" x="3" y="8" width="5" height="11">
<path d="M7.75454 14.7461C6.8735 14.2586 6.83954 11.0202 7.8784 8.0934C7.8784 8.0934 5.08546 7.83768 4.03261 11.216C3.33538 13.4575 3.84082 15.5113 4.6819 17.1215C5.91455 19.6128 7.31502 16.3124 7.75454 14.7461Z" fill="white"/>
</mask>
<g mask="url(#mask0_1051_78)">
<rect x="3.2793" y="7.81543" width="4.79475" height="11.9869" fill="black"/>
</g>
<mask id="mask1_1051_78" style="mask-type:luminance" maskUnits="userSpaceOnUse" x="11" y="4" width="12" height="15">
<path d="M19.5354 13.8492C21.7769 5.92789 22.7758 4 22.7758 4C17.142 5.10479 16.1591 7.95367 14.9464 11.8234C14.7266 12.5287 14.1792 14.2148 13.6918 15.7112C13.6578 15.8171 13.6218 15.9229 13.5879 16.0288C13.0485 17.4633 11.7399 17.5112 11.2744 16.8439C11.5122 17.3933 12.2094 18.1945 12.8327 18.5081C15.1362 19.7208 18.2268 18.8797 19.5374 13.8512L19.5354 13.8492Z" fill="white"/>
</mask>
<g mask="url(#mask1_1051_78)">
<rect x="11.2705" y="3.82031" width="11.5873" height="15.9825" fill="black"/>
</g>
<path d="M13.4583 10.415C13.1227 11.4779 12.7431 12.7465 12.3295 14.2309C12.0558 15.2158 11.6703 16.0429 11.2188 16.7221C11.2188 16.7221 11.3206 16.9439 11.4046 17.0897C11.7242 17.6471 13.0507 17.4493 13.5882 16.0249C13.6221 15.921 13.6561 15.8151 13.692 15.7072C13.7999 15.3756 13.9118 15.036 14.0197 14.6983C13.2905 13.7993 13.0388 12.1711 13.4603 10.413L13.4583 10.415Z" fill="black"/>
<mask id="mask2_1051_78" style="mask-type:luminance" maskUnits="userSpaceOnUse" x="4" y="6" width="11" height="13">
<path d="M12.3292 14.229C13.8615 8.73905 14.9304 6.18984 14.9304 6.18984C10.1836 6.91505 9.40641 9.21853 8.37953 12.473C7.18085 17.2697 5.95019 18.4924 4.77148 17.2877C5.34486 18.2506 6.13399 18.6222 6.43966 18.7441C8.62327 19.6112 11.2324 18.1607 12.3292 14.227V14.229Z" fill="white"/>
</mask>
<g mask="url(#mask2_1051_78)">
<rect x="4.67773" y="6.0166" width="10.3886" height="13.7849" fill="black"/>
</g>
</svg>
