<svg width="24" height="24" viewBox="0 0 24 24" fill="none" xmlns="http://www.w3.org/2000/svg">
<mask id="mask0_1051_78" style="mask-type:luminance" maskUnits="userSpaceOnUse" x="3" y="8" width="5" height="11">
<path d="M7.05044 14.7461C6.1694 14.2586 6.13544 11.0202 7.1743 8.0934C7.1743 8.0934 4.38136 7.83768 3.32851 11.216C2.63127 13.4575 3.13672 15.5113 3.9778 17.1215C5.21045 19.6128 6.61092 16.3124 7.05044 14.7461Z" fill="white"/>
</mask>
<g mask="url(#mask0_1051_78)">
<rect x="2.57544" y="7.81543" width="4.79475" height="11.9869" fill="white"/>
</g>
<mask id="mask1_1051_78" style="mask-type:luminance" maskUnits="userSpaceOnUse" x="10" y="4" width="13" height="15">
<path d="M18.8316 13.8492C21.0732 5.92789 22.0721 4 22.0721 4C16.4383 5.10479 15.4553 7.95367 14.2427 11.8234C14.0229 12.5287 13.4755 14.2148 12.988 15.7112C12.9541 15.8171 12.9181 15.9229 12.8841 16.0288C12.3447 17.4633 11.0362 17.5112 10.5707 16.8439C10.8084 17.3933 11.5057 18.1945 12.129 18.5081C14.4325 19.7208 17.5231 18.8797 18.8336 13.8512L18.8316 13.8492Z" fill="white"/>
</mask>
<g mask="url(#mask1_1051_78)">
<rect x="10.5667" y="3.82031" width="11.5873" height="15.9825" fill="white"/>
</g>
<path d="M12.7542 10.415C12.4186 11.4779 12.039 12.7465 11.6254 14.2309C11.3517 15.2158 10.9662 16.0429 10.5146 16.7221C10.5146 16.7221 10.6165 16.9439 10.7004 17.0897C11.0201 17.6471 12.3466 17.4493 12.8841 16.0249C12.918 15.921 12.952 15.8151 12.9879 15.7072C13.0958 15.3756 13.2077 15.036 13.3156 14.6983C12.5864 13.7993 12.3347 12.1711 12.7562 10.413L12.7542 10.415Z" fill="white"/>
<mask id="mask2_1051_78" style="mask-type:luminance" maskUnits="userSpaceOnUse" x="4" y="6" width="11" height="13">
<path d="M11.6255 14.229C13.1578 8.73905 14.2266 6.18984 14.2266 6.18984C9.47983 6.91505 8.70267 9.21853 7.6758 12.473C6.47711 17.2697 5.24646 18.4924 4.06775 17.2877C4.64112 18.2506 5.43026 18.6222 5.73592 18.7441C7.91953 19.6112 10.5287 18.1607 11.6255 14.227V14.229Z" fill="white"/>
</mask>
<g mask="url(#mask2_1051_78)">
<rect x="3.97375" y="6.0166" width="10.3886" height="13.7849" fill="white"/>
</g>
</svg>
